<?xml version="1.0" encoding="utf-8"?>
<!-- Generator: Adobe Illustrator 23.0.0, SVG Export Plug-In . SVG Version: 6.00 Build 0)  -->
<svg version="1.1" id="图层_1" xmlns="http://www.w3.org/2000/svg" xmlns:xlink="http://www.w3.org/1999/xlink" x="0px" y="0px"
	 viewBox="0 0 200 200" style="enable-background:new 0 0 200 200;" xml:space="preserve">
<style type="text/css">
	.st0{fill:#FD79A8;}
	.st1{fill:#E84393;}
</style>
<path class="st0" d="M18.4,99.9c0,45,36.5,81.6,81.6,81.6c45.1,0,81.6-36.5,81.6-81.6c0-45.1-36.5-81.6-81.6-81.6
	C54.9,18.4,18.4,54.9,18.4,99.9z"/>
<path class="st1" d="M99.9,12.6c-48.2,0-87.5,39.2-87.5,87.3s39.2,87.3,87.5,87.3s87.5-39.2,87.5-87.3
	C187.4,51.8,148.2,12.6,99.9,12.6z M157.5,53.8c10,12.3,16,28,16.3,45c-3.3-0.7-17.4-3.3-34.2-3.3c-5.4,0-11.1,0.3-16.8,1
	c-0.5-1.2-1-2.4-1.5-3.5c-1.5-3.5-3.1-6.9-4.7-10.3C142.4,72,154.9,57.2,157.5,53.8z M99.9,26.3c18.7,0,35.6,6.9,48.7,18.3
	c-2.1,2.8-13.2,16.8-38.1,26.2C99,49.7,86.3,32.2,83.4,28.2C88.6,27,94.2,26.3,99.9,26.3z M68.2,33.4c2.6,3.5,15.2,21.1,27,42.1
	c-31.8,8.3-59.9,8.9-66.8,8.9h-0.7C32.6,61.9,47.8,43.2,68.2,33.4z M26,100.1c0-0.6,0-1.2,0.1-1.8H28c9.2,0,41-0.8,73.8-10.5
	c2,3.9,3.9,7.8,5.6,11.8c-0.8,0.2-1.6,0.5-2.4,0.7c-37,12-57.3,43.6-60.4,48.7C33.1,135.9,26,118.8,26,100.1L26,100.1z M99.9,173.9
	c-17,0-32.6-5.7-45.1-15.4c2.1-4.1,17.4-31.7,57.9-45.8h0.1c10.1,26.4,14.5,48.6,15.6,55.4C119.7,171.8,110.1,173.9,99.9,173.9z
	 M141.8,160.9c-1-5.7-5-26.5-14.2-51.8c5.2-0.8,10.1-1.1,14.9-1.1c15.4,0,27.5,3.4,30.3,4.3C169.5,132.3,157.9,149.7,141.8,160.9
	L141.8,160.9z"/>
</svg>
