<?xml version="1.0" encoding="utf-8"?>
<!-- Generator: Adobe Illustrator 23.0.0, SVG Export Plug-In . SVG Version: 6.00 Build 0)  -->
<svg version="1.1" id="图层_1" xmlns="http://www.w3.org/2000/svg" xmlns:xlink="http://www.w3.org/1999/xlink" x="0px" y="0px"
	 viewBox="0 0 200 200" style="enable-background:new 0 0 200 200;" xml:space="preserve">
<style type="text/css">
	.st0{fill:#2D3436;}
</style>
<path class="st0" d="M100,2.7C46.2,2.7,2.7,46.2,2.7,100s43.6,97.3,97.3,97.3s97.3-43.6,97.3-97.3S153.8,2.7,100,2.7z M155.6,131.7
	c0,5.5-4.8,10-10.8,10H58.6c-5.9,0-10.8-4.5-10.8-10l0.1-49.4l0,0l52.5,26.6c0.8,0.4,1.8,0.4,2.6,0l52.6-26.6L155.6,131.7
	L155.6,131.7z M101.8,99.5L47.9,71.7c0.1-5.5,4.8-9.9,10.7-9.9h86.2c5.9,0,10.7,4.4,10.8,9.9C155.6,71.6,101.8,99.5,101.8,99.5z"/>
</svg>
