<?xml version="1.0" encoding="utf-8"?>
<!-- Generator: Adobe Illustrator 23.0.0, SVG Export Plug-In . SVG Version: 6.00 Build 0)  -->
<svg version="1.1" id="图层_1" xmlns="http://www.w3.org/2000/svg" xmlns:xlink="http://www.w3.org/1999/xlink" x="0px" y="0px"
	 viewBox="0 0 200 200" style="enable-background:new 0 0 200 200;" xml:space="preserve">
<style type="text/css">
	.st0{fill:#FF7675;}
</style>
<path class="st0" d="M86.6,94.6c-20.3,0.9-36.6,11.6-36.6,25s16.4,23.4,36.7,22.4s36.8-13.4,36.7-26.8S106.9,93.7,86.6,94.6z
	 M100.4,128.2c-7.5,9-20.3,11.3-30.4,5.4c-3.3-1.8-5.4-5.2-5.4-9c-1.4-10.3,5.9-19.7,16.1-21c0.6-0.1,1.2-0.1,1.9-0.2
	C103,101.1,106.6,120.3,100.4,128.2L100.4,128.2z"/>
<path class="st0" d="M86.8,115.6c-1.2,0.9-1.6,2.5-0.9,3.8c0.8,1.1,2.3,1.3,3.3,0.5c0.1-0.1,0.2-0.1,0.2-0.2
	c1.2-0.9,1.7-2.5,1.1-3.8c-0.8-1.1-2.4-1.3-3.5-0.5C86.9,115.5,86.8,115.5,86.8,115.6z M77.1,118.2c-3.4,0.5-6.1,3.3-6.3,6.8
	c0,3.1,3.1,5.3,6.9,4.9c3.5-0.2,6.4-2.8,6.9-6.2C84.3,120.3,81.3,117.8,77.1,118.2z"/>
<path class="st0" d="M100,0C44.8,0,0,44.8,0,100s44.8,100,100,100s100-44.8,100-100S155.2,0,100,0z M141.4,124.1
	c-8.4,17.5-35.9,26-56.2,24.4c-19.4-1.5-44.4-7.9-46.9-31.3c0-8.7,3.2-17,8.9-23.6c0,0,14.8-20.4,32.1-26.3s19.3,4,19.3,9.8
	c0,5.8-2.6,7.8,3.8,5.8c0,0,17-7.8,24-0.9c3.2,3.7,3.6,9.1,0.9,13.3c0,0-2.3,2.6,2.5,3.5c9.2,1.6,15.3,10.4,13.7,19.6
	C143.1,120.5,142.4,122.4,141.4,124.1z M124.7,75.7c-1.8,0-3.3-1.5-3.3-3.3c0-1.8,1.5-3.3,3.3-3.3c0,0,0,0,0,0
	c8-2.2,16.2,2.6,18.4,10.6c0.7,2.6,0.7,5.3,0,7.9c0,0.1,0,0.3,0,0.4c-0.3,1.8-2.1,3-3.9,2.7c-1.5-0.3-2.7-1.5-2.8-3.1
	C136.4,87.5,139.6,72.4,124.7,75.7L124.7,75.7z M159.9,93.4c-0.6,3.8-2.4,4.1-4.7,4.1c-2.4,0.2-4.6-1.5-4.9-4c0-0.1,0-0.2,0-0.3
	c0.1-1.6,0.4-3.2,1-4.6c1.7-5.3,1.2-11-1.3-15.9c-5.2-8.1-14.5-12.7-24.1-11.8c-1.4,0.5-2.9,0.8-4.4,1c-2.7,0-4.8-2.2-4.8-4.8
	c0-2.1,1.4-4,3.5-4.6h0.4c5.5-1.1,11.2-1.1,16.7,0C150,54.9,167.9,67.3,159.9,93.4L159.9,93.4z"/>
</svg>
