<?xml version="1.0" encoding="utf-8"?>
<!-- Generator: Adobe Illustrator 23.0.0, SVG Export Plug-In . SVG Version: 6.00 Build 0)  -->
<svg version="1.1" id="图层_1" xmlns="http://www.w3.org/2000/svg" xmlns:xlink="http://www.w3.org/1999/xlink" x="0px" y="0px"
	 viewBox="0 0 200 200" style="enable-background:new 0 0 200 200;" xml:space="preserve">
<style type="text/css">
	.st0{fill:#2D3436;}
</style>
<path class="st0" d="M0,101.7c0-13.5,2.6-26.5,7.9-38.9c5.3-12.4,12.4-23,21.3-31.9c8.9-8.9,19.6-16,31.9-21.3
	C73.4,4.4,86.6,1.7,100,1.7c13.5,0,26.5,2.6,38.9,7.9c12.4,5.3,23,12.4,31.9,21.3c8.9,8.9,16,19.6,21.3,31.9
	c5.3,12.3,7.9,25.5,7.9,38.9c0,21.7-6.3,41.3-19,58.7c-12.7,17.4-29,29.5-48.9,36.2c-1,0-1.8-0.2-2.3-0.6c-0.5-0.4-0.8-0.8-0.9-1.2
	c-0.1-0.6-0.1-1.2-0.1-1.8c-0.1-0.2-0.2-0.4-0.2-0.6v-25.2c0-7.9-2.8-14.7-8.4-20.3c15-2.6,26.2-8.2,33.6-16.7
	c7.4-8.5,11.1-18.9,11.1-31c0-11.3-3.6-21.2-10.9-29.5c2.6-8.3,2.1-17.1-1.4-26.4c-3.7-0.3-7.6,0.4-11.9,1.9
	c-4.3,1.5-7.5,2.9-9.6,4.2c-2.1,1.3-4,2.5-5.7,3.7c-7.6-2.1-16-3.1-25.3-3.1c-9.3,0-17.7,1-25.1,3.1c-1.4-1-3.1-2.2-5-3.4
	c-1.9-1.2-5.2-2.7-9.9-4.5c-4.7-1.8-8.9-2.5-12.7-2.2c-3.6,9.4-4,18.3-1.2,26.8c-7.2,8.3-10.7,18.2-10.7,29.5
	c0,12.1,3.6,22.4,10.9,30.9c7.3,8.5,18.5,14.1,33.6,16.8c-3.9,3.7-6.6,8.5-7.8,13.7c-11.1,2.7-18.8,0.8-23.2-5.9
	c-8.2-12-15.6-16.3-22.1-12.9c-0.9,0.9-0.8,1.9,0.4,2.8c1.2,1,2.9,2.3,5.3,3.9c2.3,1.6,4.1,3.4,5.3,5.4c0.1,0.3,0.5,1.2,1.1,2.8
	c0.6,1.6,1.1,3.1,1.8,4.7c0.6,1.5,1.7,3.2,3.3,5c1.6,1.8,3.5,3.4,5.7,4.6c2.1,1.2,5.1,2.1,8.9,2.7c3.8,0.6,8.1,0.6,12.9,0.1v19.6
	c0,0.2,0,0.5-0.1,1c-0.1,0.5-0.2,0.8-0.4,1c-0.2,0.2-0.5,0.4-0.8,0.6c-0.4,0.2-0.8,0.3-1.3,0.3c-0.5,0-1.2-0.1-2-0.2
	c-19.8-6.9-35.9-19-48.3-36.2C6.2,142.8,0,123.4,0,101.7L0,101.7z"/>
</svg>
