<svg id="图层_1" data-name="图层 1" xmlns="http://www.w3.org/2000/svg" viewBox="0 0 1478.15 509.13"><defs><style>.cls-1{fill:#dfe5e8;}</style></defs><path class="cls-1" d="M356.8,968.9a124.67,124.67,0,0,1,17.89-11.24c3.78-2,7.64-3.87,11.53-5.66,2.13-1,4.27-1.88,6.41-2.83,3-1.36-3.34,1.35.31-.13,1.22-.5,2.44-1,3.67-1.5,22.79-9.15,46.36-16.34,70-22.83,69.52-19.06,140.7-32.15,211.81-43.61,97-15.62,193.83-27.23,291.92-36.91,120.09-11.86,240.5-20.42,361-26.53q205.92-10.44,412.19-11.47,27.18-.15,54.35-.15c19.3,0,19.33-30,0-30q-210.12,0-420.1,9.39c-123.53,5.6-247,13.74-370.1,25.18C905.27,820.13,803,831.87,701.26,847.36c-74.82,11.39-149.64,24.5-223,43.24-25.72,6.57-51.34,13.84-76.31,22.93-17.88,6.51-36,13.7-52.21,23.87-2.77,1.74-5.47,3.6-8.07,5.6-6.4,4.94-9.84,12.89-5.38,20.52,3.68,6.3,14.07,10.37,20.52,5.38Z" transform="translate(-334.26 -462)"/><path class="cls-1" d="M374.68,563q0-14.38,6-25.08a54.47,54.47,0,0,1,16.78-18.23,97.23,97.23,0,0,1,25.94-12.41,209.72,209.72,0,0,1,33.29-7.62,375.07,375.07,0,0,1,38.92-3.69q20.75-1,42.89-.95,29.74,0,62.3,2.22t67.93,8.08q8.2,1.59,11.53,5.71a14.22,14.22,0,0,1,3.34,9.19,18.63,18.63,0,0,1-1.54,7.37,26.29,26.29,0,0,1-4.1,6.62,20,20,0,0,1-6,4.81,15.23,15.23,0,0,1-7.18,1.8,230.58,230.58,0,0,1-27.43-1.71q-14.28-1.7-29.74-3.83T575.73,531q-16.41-2.12-33.84-3.19a383,383,0,0,1-8.76,44.05q-5.68,21.82-11.64,44.73t-11.9,45.71Q503.65,685.11,498.2,706t-10,38.61q-4.62,17.68-7.92,30.42a37.23,37.23,0,0,1-4.35,10.49,42.15,42.15,0,0,1-6.58,8.3,30.14,30.14,0,0,1-7.55,5.46,16.62,16.62,0,0,1-7.28,1.93q-10.12,0-16.68-4.62t-6.55-14.87a28.34,28.34,0,0,1,1-7.17q3.75-15.09,7.52-30.18t7.87-31.59q4.11-16.5,10.44-34.79t14-40.25q7.69-22,16.66-49.24t19.4-60.73q-9.06.72-18.37,1.61t-18.12,2.42A147.52,147.52,0,0,0,455,535.67a72.89,72.89,0,0,0-14.42,5.91,32,32,0,0,0-10.32,8.59A19,19,0,0,0,426.47,562c0,.24-.14,1.55-.41,3.93a20.57,20.57,0,0,1-2.82,7.79,23.71,23.71,0,0,1-7.66,7.69q-5.25,3.5-14.92,3.49t-15-3.42a22,22,0,0,1-11-18.49Z" transform="translate(-334.26 -462)"/><path class="cls-1" d="M612.15,790.3q-16,0-27.93-5.92a57.93,57.93,0,0,1-20-15.91,68.85,68.85,0,0,1-12-23.14,94.27,94.27,0,0,1-4-27.57q0-9.45,3.57-22.51t7.39-23.2a108.24,108.24,0,0,1,9.6-19.31,76.8,76.8,0,0,1,13.52-16.19,62.31,62.31,0,0,1,17.34-11.14,53.49,53.49,0,0,1,21.33-4.13,50.52,50.52,0,0,1,17.79,3.07A43.82,43.82,0,0,1,653.15,633a39,39,0,0,1,9.49,13.4A43.62,43.62,0,0,1,666.07,664q0,10.37-6.94,23.23a93.17,93.17,0,0,1-16.19,22.06,101.78,101.78,0,0,1-22,16.37,118.84,118.84,0,0,1-27.66,11.2,52.25,52.25,0,0,0,5.06,7.52A22.62,22.62,0,0,0,603.4,749a16.82,16.82,0,0,0,5.4,2.34,26.25,26.25,0,0,0,6.09.67,65.08,65.08,0,0,0,21.62-4,143.21,143.21,0,0,0,22.13-10A186.68,186.68,0,0,0,679,724.86a171.55,171.55,0,0,0,16.23-13.45l22,22.39a227.63,227.63,0,0,1-32,28.34q-7.35,5.28-15.81,10.39a141.86,141.86,0,0,1-17.77,9.06,120.18,120.18,0,0,1-19.31,6.33A87,87,0,0,1,612.15,790.3Zm-22.82-81.4a34.58,34.58,0,0,0,13.47-3.09,61,61,0,0,0,13.55-7.93,65.3,65.3,0,0,0,12.27-13q6-8.19,6-13.53,0-7.53-2.83-12.37c-1.89-3.23-4.2-4.85-6.95-4.85a26.36,26.36,0,0,0-21.36,9.61,35.81,35.81,0,0,0-5.66,9.69q-2.15,5.45-5,13.46a51.81,51.81,0,0,0-3.18,13.2Q589.33,705.23,589.33,708.9Z" transform="translate(-334.26 -462)"/><path class="cls-1" d="M736.9,790.3q-15.82,0-27.79-5.81a59.41,59.41,0,0,1-20-15.55,67.22,67.22,0,0,1-12.21-22.56,86.5,86.5,0,0,1-4.13-26.66q0-9.91,3.44-23.76a199,199,0,0,1,7.47-24.18,116.31,116.31,0,0,1,10-19.74,78.94,78.94,0,0,1,13.75-16.49,63.33,63.33,0,0,1,17.44-11.28,52.37,52.37,0,0,1,21.13-4.19,59.24,59.24,0,0,1,19.18,3,45.91,45.91,0,0,1,15.09,8.28A38.47,38.47,0,0,1,790,643.92a35.27,35.27,0,0,1,3.55,15.64A40.21,40.21,0,0,1,791.89,671a55.23,55.23,0,0,1-6.47,13.25q-4.81,7.61-9.34,10.34a19.49,19.49,0,0,1-10.26,2.73q-8.66,0-11.17-4.27-4.14-6.67-2.61-11.79.51-2.74,3.06-12.65a28.31,28.31,0,0,0,.17-6.15,23.3,23.3,0,0,0-.85-6.84,3.56,3.56,0,0,0-3.74-2.73,20.79,20.79,0,0,0-11.91,3.33,30,30,0,0,0-8.42,8.72,71.56,71.56,0,0,0-6.89,15.21,146.79,146.79,0,0,0-4.85,16.49,81.41,81.41,0,0,0-1.79,12.73q-.35,6.06-.34,10.17a78.15,78.15,0,0,0,1.11,12.82A34.5,34.5,0,0,0,722,744.58a29.5,29.5,0,0,0,8.59,9.23q5.28,3.68,13.61,3.68t18.12-5a127.83,127.83,0,0,0,19.91-12.74,182.17,182.17,0,0,0,19-16.92,220.7,220.7,0,0,0,15.56-17.43l11.79,19.83A224,224,0,0,1,801,757.83a168,168,0,0,1-13.75,12,120.7,120.7,0,0,1-15.56,10.34,92.54,92.54,0,0,1-16.92,7.35A58.05,58.05,0,0,1,736.9,790.3Z" transform="translate(-334.26 -462)"/><path class="cls-1" d="M871.49,685.92q7-9.48,15.72-20.37a281.13,281.13,0,0,1,23.33-25.1q14.61-14.22,23.92-20.46T952,613.76a15.7,15.7,0,0,1,4.61.79,12.81,12.81,0,0,1,4.87,2.87,15.89,15.89,0,0,1,3.85,5.83,25.86,25.86,0,0,1,1.54,9.67A82.8,82.8,0,0,1,963.6,656q-3.26,11.24-12.3,27.26t-12.22,27.69a92.78,92.78,0,0,0-3.17,24.39q0,7,2.06,11.14c1.36,2.79,3.13,4.18,5.29,4.18a24.93,24.93,0,0,0,8.72-1.72,56.69,56.69,0,0,0,9.23-4.49,85.38,85.38,0,0,0,9.06-6.3q4.44-3.54,8.37-7.34a197.48,197.48,0,0,0,18.46-20l2.9,45.5q-3.07,2.25-7.77,5.62T981.8,769q-5.73,3.78-12.39,7.63A136.64,136.64,0,0,1,956,783.48a104.52,104.52,0,0,1-13.5,4.89,46.79,46.79,0,0,1-12.9,1.93,29,29,0,0,1-16.7-4.8,39.7,39.7,0,0,1-11.63-12.22,58.91,58.91,0,0,1-6.82-16.2,66.33,66.33,0,0,1-2.28-16.61,57.32,57.32,0,0,1,1.52-12.34q1.5-6.82,3.73-13.73t5-13.46q2.76-6.57,5.16-11.74t4.18-8.46a22.49,22.49,0,0,1,2.31-3.8l-3.59-.52q-2.91,1.86-9.83,9.47T885,705.07q-8.72,11.58-18,26a293,293,0,0,0-16.84,29.83q-3.75,7.62-6.15,13.28a56,56,0,0,1-4.7,9.11,17.86,17.86,0,0,1-5,5.21,12.68,12.68,0,0,1-7,1.77c-3.76,0-6.72-1-8.88-3a19.31,19.31,0,0,1-5-8.1,47.63,47.63,0,0,1-2.22-11.48q-.51-6.42-.51-13.17,0-11.73.25-30.73t1.63-42.12q1.37-23.11,5-47.9t7.21-49.31a289.73,289.73,0,0,1,10.69-46.69,183.4,183.4,0,0,1,17.28-39q10.18-16.86,23.87-26.79A52.24,52.24,0,0,1,908.06,462q9.23,0,15.12,2.75a23.28,23.28,0,0,1,9.4,7.74,30.75,30.75,0,0,1,4.87,11.95A81.05,81.05,0,0,1,938.82,500a127,127,0,0,1-3.59,28.32,302,302,0,0,1-9.48,32.28q-5.89,16.74-13.42,33.92T897,627.83Q889.09,644,881.48,658.3t-13.41,25.2Zm15.17-107.54q10.1-26.14,14.64-44.09t4.54-26.49q0-13-3.65-13-4.44,0-13.16,14.52t-20.51,42.19q-2.91,9.39-5.39,19.48t-3.93,20.13q-1.46,10.05-2.86,19.77t-2.64,18.33Q849.94,649.52,848,669q4.62-10.77,10.1-23.41t10.79-25q5.31-12.39,10-23.41T886.66,578.38Z" transform="translate(-334.26 -462)"/><path class="cls-1" d="M1083.23,562.81q-11.12,20.27-19.83,30.4t-14.18,10.13q-7.52,0-7.52-17.26a88.59,88.59,0,0,1,4.79-30.08,77.37,77.37,0,0,1,13.41-23.67,82.74,82.74,0,0,1,20.51-17.6,125.92,125.92,0,0,1,26-12,168.81,168.81,0,0,1,29.82-6.92,230.69,230.69,0,0,1,32.3-2.22,271.93,271.93,0,0,1,38.79,2.81,285.58,285.58,0,0,1,37.43,7.93,225.88,225.88,0,0,1,33.49,12.36,146.87,146.87,0,0,1,27.09,16,75.61,75.61,0,0,1,18.12,19,38.88,38.88,0,0,1,6.58,21.31,63.38,63.38,0,0,1-5.73,26,65.49,65.49,0,0,1-17.94,23.22q-12.22,10.36-31.28,17t-45.71,7.19q16.92,0,29.56,5.5a61.49,61.49,0,0,1,21.19,14.85,60.66,60.66,0,0,1,12.82,22.36,82.83,82.83,0,0,1,1.37,48,86.4,86.4,0,0,1-8.72,21,92.77,92.77,0,0,1-14.52,18.91,90.63,90.63,0,0,1-20.43,15.39,109.64,109.64,0,0,1-26.4,10.34,129.58,129.58,0,0,1-32.3,3.79,217.31,217.31,0,0,1-23.41-1.34q-12.32-1.35-24.87-3.63T1119,796.29q-12.14-3.15-22.9-6.78a29,29,0,0,1-8.46-3.31q-3.67-2.21-3.68-7.89,0-28.72,1.46-58.82a589.17,589.17,0,0,1,5.89-59.6q4.44-29.5,12-51.3a183.06,183.06,0,0,1,21.37-42.39q12.12-8.4,22-8.4,12.48,0,20.85,14.06a117.93,117.93,0,0,0-13.41,23.91,204.5,204.5,0,0,0-8.46,23.39,209.92,209.92,0,0,0-5.21,25.29q-2.31,15.07-3.68,29.45-.85,8.15-1.45,18.11t-1.11,19.49q-.53,9.53-.77,19t-.26,18.1v3.84a31,31,0,0,0,.43,5.07,33.61,33.61,0,0,0,1.11,4.8,6.25,6.25,0,0,0,2,3.23,190.18,190.18,0,0,0,22.39,5.94,119.14,119.14,0,0,0,23.92,2.44,110.66,110.66,0,0,0,28.2-3.58A71.08,71.08,0,0,0,1235.5,759a57.7,57.7,0,0,0,17-19.91q6.42-12.13,6.41-31,0-10.12-3.76-16.85a35.63,35.63,0,0,0-9.82-11.27,51.17,51.17,0,0,0-13.85-7.25q-7.77-2.7-15.89-4.89l-15.89-4.26a66.26,66.26,0,0,1-13.85-5.29,30.32,30.32,0,0,1-9.82-8q-3.77-4.77-3.76-12.4a40.47,40.47,0,0,1,.42-6.24,8,8,0,0,1,2-4.36,10.11,10.11,0,0,1,4.79-2.56,34.4,34.4,0,0,1,8.63-.86q7.35,0,13.42.6t13.07.6a101.55,101.55,0,0,0,29.65-4,74.24,74.24,0,0,0,22.56-10.89,49.71,49.71,0,0,0,14.36-16,40.3,40.3,0,0,0,5-19.64,21.85,21.85,0,0,0-3.93-12.61,37.88,37.88,0,0,0-11-10.29,82.49,82.49,0,0,0-16.66-8,153.47,153.47,0,0,0-20.85-5.74,212.2,212.2,0,0,0-23.75-3.44q-12.48-1.11-25.3-1.11-20.67,0-32.13,1.37a191.3,191.3,0,0,0-29.3,5.41,108.14,108.14,0,0,0-24.1,9.53Q1088.7,555.43,1083.23,562.81Z" transform="translate(-334.26 -462)"/><path class="cls-1" d="M1367.1,790.3q-9.19,0-17.11-8t-13.79-21.45a144.64,144.64,0,0,1-9.2-31.2,202.63,202.63,0,0,1-3.32-37.26q0-16.77,4.93-44.77t4.93-28l7.47-28q7.46-28,15-44.86a290,290,0,0,1,16.31-31.57,171.88,171.88,0,0,1,18.47-25.58,85.48,85.48,0,0,1,20.2-17.14,41.52,41.52,0,0,1,21.4-6.23q7.92,0,13.07,3a22.51,22.51,0,0,1,8.1,8,34.61,34.61,0,0,1,4.14,11.23,68.67,68.67,0,0,1,1.19,12.78,147.56,147.56,0,0,1-3.82,32.91,248.29,248.29,0,0,1-10.3,33.68q-6.49,16.92-15,33.94T1412,635.58q-9.26,16.75-18.57,33t-17.22,31.75a38.18,38.18,0,0,0-1.8,4.48q-.94,2.76-1.8,5.94t-1.71,6.81q-.85,3.62-1.38,7.07V727a39.65,39.65,0,0,0,1,8.7,47,47,0,0,0,2.31,7.59,22.86,22.86,0,0,0,2.92,5.34c1,1.32,2,2,2.91,2a25.21,25.21,0,0,0,7.61-1.38,71.15,71.15,0,0,0,9.1-3.7q4.82-2.33,9.89-5.34t9.8-6.12q11-7.25,23.1-16.72l15.09,36q-15.67,10.41-31,18.53-6.69,3.4-13.82,6.74T1394,784.61a117.05,117.05,0,0,1-14.07,4.15A58.7,58.7,0,0,1,1367.1,790.3Zm.16-135.47q7.73-13.79,16.37-31t16.38-35.5q7.71-18.27,13.37-36.46a171.14,171.14,0,0,0,7.2-33.86c0-3.33-.08-6.18-.24-8.53s-.68-3.54-1.54-3.54q-4.69,0-10.12,6.5A87.64,87.64,0,0,0,1397.83,530q-5.43,11.09-13,36l-7.53,25s-1.54,7.72-4.6,23.16A286,286,0,0,0,1367.26,654.83Z" transform="translate(-334.26 -462)"/><path class="cls-1" d="M1526,658.54a91.56,91.56,0,0,1,7.43,20.93,113.93,113.93,0,0,1,2.48,24.87,95.8,95.8,0,0,1-2.22,20.33,104.56,104.56,0,0,1-6.41,19.83,95.77,95.77,0,0,1-10.26,17.94A72.49,72.49,0,0,1,1503.21,777a65.45,65.45,0,0,1-17,9.74,53.82,53.82,0,0,1-19.66,3.59q-15,0-25.72-6.58a54.72,54.72,0,0,1-17.51-17.18,76.06,76.06,0,0,1-10-23.92,116.52,116.52,0,0,1-3.16-27q0-22.56,5.64-38.88A84.65,84.65,0,0,1,1432,648.37a74.7,74.7,0,0,1,25.72-19q15.21-6.93,34.18-6.92a90.23,90.23,0,0,1,30.42,5,115.61,115.61,0,0,1,26.57,13.5,113.23,113.23,0,0,1,23.07,21.28q10.68,12.81,19.91,24.43l-3.24,24.1a100.11,100.11,0,0,0-12.48-13.33q-7.86-7.17-16.66-15.89a140,140,0,0,0-17.35-14.78q-8.55-6.08-14.7-10.17Zm-52.81,99q5.8,0,11.28-5.9a56.05,56.05,0,0,0,9.57-14.87,97.15,97.15,0,0,0,6.58-21.7,120.27,120.27,0,0,0,2.48-22.65,83.64,83.64,0,0,0-1.2-14.61,44.77,44.77,0,0,0-3.59-11.7,21.57,21.57,0,0,0-6.15-7.87,14.43,14.43,0,0,0-9.06-2.9q-7,0-13.33,6a56,56,0,0,0-11.11,15.3,93,93,0,0,0-7.52,20.59,108.55,108.55,0,0,0-2.73,25.46,63.32,63.32,0,0,0,1.37,13.51,34.67,34.67,0,0,0,4.27,11,21.42,21.42,0,0,0,19.14,10.34Z" transform="translate(-334.26 -462)"/><path class="cls-1" d="M1588,946.93a47.91,47.91,0,0,1-13.59-6,29.57,29.57,0,0,1-10.08-11.2,43,43,0,0,1-4.7-16.75q-1.38-17.94,9.91-38.11,6.5-11.26,9-15.72t8-12.56A141.88,141.88,0,0,1,1597.93,832q12-13.5,19.74-21.62t18.54-17.52l3.42-20.32q-19.14,18.11-37.26,18.1a41.1,41.1,0,0,1-24.52-8,51.19,51.19,0,0,1-16.84-20q-10.24-21.36-.51-49.9,8.88-26.65,18-44a105.45,105.45,0,0,1,23.41-30.17q20.85-18.63,40.5-18.63c5.92,0,10.26,1.67,13,5a18.55,18.55,0,0,1,1.54,2,10.15,10.15,0,0,0,1.45,1.81c.28.23.77.69,1.45,1.38a4.83,4.83,0,0,0,1.88,1.3q.86.26,2.22.78a12.54,12.54,0,0,0,3.09.69c1.14.11,2.46.17,4,.17l7.53-.17q7.68,0,10.59,4.63a42.35,42.35,0,0,1,2.22,5q2.06,5.32.52,35.17-.52,9.27-4.36,22.94a152.24,152.24,0,0,0-5,30.37q-1.2,16.69-3.76,43.45a107.77,107.77,0,0,0,10.59-7.16q20.16-15.16,45.63-56.41L1746,748.77q-4.79,9.5-16.92,21.87a237.39,237.39,0,0,1-20.85,18.82c-1,.67-1.82,1.18-2.39,1.52q-16.41,10.6-23.76,15.57-4.6,3.08-6.32,11.11t-3.76,30.1q-.83,6.36-1.25,9.81-1,7.77-1.94,15.3a137.22,137.22,0,0,1-3.43,17,139.56,139.56,0,0,1-5.73,17.42,93.24,93.24,0,0,1-8.46,15.89,61.41,61.41,0,0,1-11.7,13.4,52.85,52.85,0,0,1-15.56,8.89,55.89,55.89,0,0,1-19.82,3.41A62,62,0,0,1,1588,946.93Zm24.82-85.44a197.79,197.79,0,0,0-18.45,38.36q-5.64,16.23,5.81,16.23a23.66,23.66,0,0,0,7.26-1,15.32,15.32,0,0,0,5.9-3.68,35.39,35.39,0,0,0,4.78-5.72,49.65,49.65,0,0,0,4.36-8.89c1.54-3.88,2.93-7.66,4.19-11.37s2.73-8.63,4.44-14.78a61.49,61.49,0,0,0,2.26-10.87q.72-5.91,1.79-14.62t1.35-11.07Q1624.47,842.61,1612.84,861.49Zm-10.25-110.84q4.1,7.19,10.77,7.18,11.61,0,19.31-18.63a88.88,88.88,0,0,0,6.66-29.56l12.82-56.91q-19.83,0-34.86,26.66-16.24,28.36-17.78,38.45Q1596.27,739.54,1602.59,750.65Z" transform="translate(-334.26 -462)"/></svg>