<svg width="16" height="16" viewBox="0 0 16 16" fill="none" xmlns="http://www.w3.org/2000/svg">
<g clip-path="url(#clip0)">
<path fill-rule="evenodd" clip-rule="evenodd" d="M3.5 10C3.10218 10 2.72064 9.84196 2.43934 9.56066C2.15804 9.27936 2 8.89782 2 8.5L2 7.5C2 7.10218 2.15804 6.72064 2.43934 6.43934C2.72064 6.15804 3.10218 6 3.5 6L4.5 6C4.89782 6 5.27936 6.15804 5.56066 6.43934C5.84197 6.72064 6 7.10218 6 7.5L7 7.5L7 2C7 1.86739 7.05268 1.74021 7.14645 1.64645C7.24022 1.55268 7.36739 1.5 7.5 1.5L8.5 1.5C8.63261 1.5 8.75979 1.55268 8.85355 1.64645C8.94732 1.74021 9 1.86739 9 2C9 2.13261 8.94732 2.25979 8.85355 2.35355C8.75979 2.44732 8.63261 2.5 8.5 2.5L8 2.5L8 7.5L8.5 7.5C8.63261 7.5 8.75979 7.55268 8.85355 7.64645C8.94732 7.74021 9 7.86739 9 8C9 8.13261 8.94732 8.25979 8.85355 8.35355C8.75979 8.44732 8.63261 8.5 8.5 8.5L8 8.5L8 13.5L8.5 13.5C8.63261 13.5 8.75979 13.5527 8.85355 13.6464C8.94732 13.7402 9 13.8674 9 14C9 14.1326 8.94732 14.2598 8.85355 14.3536C8.75979 14.4473 8.63261 14.5 8.5 14.5L7.5 14.5C7.36739 14.5 7.24021 14.4473 7.14645 14.3536C7.05268 14.2598 7 14.1326 7 14L7 8.5L6 8.5C6 8.89782 5.84197 9.27936 5.56066 9.56066C5.27936 9.84196 4.89782 10 4.5 10L3.5 10ZM5 7.5C5 7.36739 4.94732 7.24021 4.85355 7.14645C4.75979 7.05268 4.63261 7 4.5 7L3.5 7C3.36739 7 3.24021 7.05268 3.14645 7.14645C3.05268 7.24021 3 7.36739 3 7.5L3 8.5C3 8.63261 3.05268 8.75979 3.14645 8.85355C3.24021 8.94732 3.36739 9 3.5 9L4.5 9C4.63261 9 4.75979 8.94732 4.85355 8.85355C4.94732 8.75979 5 8.63261 5 8.5L5 7.5ZM11.5 16C11.1022 16 10.7206 15.842 10.4393 15.5607C10.158 15.2794 10 14.8978 10 14.5L10 13.5C10 13.1022 10.158 12.7206 10.4393 12.4393C10.7206 12.158 11.1022 12 11.5 12L12.5 12C12.8978 12 13.2794 12.158 13.5607 12.4393C13.842 12.7206 14 13.1022 14 13.5L14 14.5C14 14.8978 13.842 15.2794 13.5607 15.5607C13.2794 15.842 12.8978 16 12.5 16L11.5 16ZM11 14.5C11 14.6326 11.0527 14.7598 11.1464 14.8536C11.2402 14.9473 11.3674 15 11.5 15L12.5 15C12.6326 15 12.7598 14.9473 12.8536 14.8536C12.9473 14.7598 13 14.6326 13 14.5L13 13.5C13 13.3674 12.9473 13.2402 12.8536 13.1464C12.7598 13.0527 12.6326 13 12.5 13L11.5 13C11.3674 13 11.2402 13.0527 11.1464 13.1464C11.0527 13.2402 11 13.3674 11 13.5L11 14.5ZM11.5 10C11.1022 10 10.7206 9.84197 10.4393 9.56066C10.158 9.27936 10 8.89782 10 8.5L10 7.5C10 7.10218 10.158 6.72064 10.4393 6.43934C10.7206 6.15804 11.1022 6 11.5 6L12.5 6C12.8978 6 13.2794 6.15804 13.5607 6.43934C13.842 6.72064 14 7.10218 14 7.5L14 8.5C14 8.89782 13.842 9.27936 13.5607 9.56066C13.2794 9.84197 12.8978 10 12.5 10L11.5 10ZM11 8.5C11 8.63261 11.0527 8.75979 11.1464 8.85355C11.2402 8.94732 11.3674 9 11.5 9L12.5 9C12.6326 9 12.7598 8.94732 12.8536 8.85355C12.9473 8.75979 13 8.63261 13 8.5L13 7.5C13 7.36739 12.9473 7.24021 12.8536 7.14645C12.7598 7.05268 12.6326 7 12.5 7L11.5 7C11.3674 7 11.2402 7.05268 11.1464 7.14645C11.0527 7.24021 11 7.36739 11 7.5L11 8.5ZM11.5 4C11.1022 4 10.7206 3.84197 10.4393 3.56066C10.158 3.27936 10 2.89782 10 2.5L10 1.5C10 1.10218 10.158 0.720644 10.4393 0.43934C10.7206 0.158035 11.1022 1.08542e-07 11.5 1.13286e-07L12.5 1.25211e-07C12.8978 1.29955e-07 13.2794 0.158035 13.5607 0.43934C13.842 0.720644 14 1.10218 14 1.5L14 2.5C14 2.89782 13.842 3.27936 13.5607 3.56066C13.2794 3.84197 12.8978 4 12.5 4L11.5 4ZM11 2.5C11 2.63261 11.0527 2.75979 11.1464 2.85355C11.2402 2.94732 11.3674 3 11.5 3L12.5 3C12.6326 3 12.7598 2.94732 12.8536 2.85355C12.9473 2.75979 13 2.63261 13 2.5L13 1.5C13 1.36739 12.9473 1.24021 12.8536 1.14645C12.7598 1.05268 12.6326 1 12.5 1L11.5 1C11.3674 1 11.2402 1.05268 11.1464 1.14645C11.0527 1.24021 11 1.36739 11 1.5L11 2.5Z" fill="black"/>
</g>
<defs>
<clipPath id="clip0">
<rect width="16" height="16" fill="white" transform="translate(0 16) rotate(-90)"/>
</clipPath>
</defs>
</svg>
