<?xml version="1.0" encoding="utf-8"?>
<!-- Generator: Adobe Illustrator 23.0.0, SVG Export Plug-In . SVG Version: 6.00 Build 0)  -->
<svg version="1.1" id="图层_1" xmlns="http://www.w3.org/2000/svg" xmlns:xlink="http://www.w3.org/1999/xlink" x="0px" y="0px"
	 viewBox="0 0 200 200" style="enable-background:new 0 0 200 200;" xml:space="preserve">
<style type="text/css">
	.st0{fill:#FFFFFF;}
	.st1{fill:#0984E3;}
</style>
<path class="st0" d="M33.3,41.7h133.3v125H33.3V41.7z"/>
<path class="st1" d="M100.2,200c-40.5,0.1-77-24.3-92.5-61.7s-7-80.4,21.6-109S101-7.9,138.3,7.7c37.4,15.5,61.8,52,61.7,92.5
	C200,155.3,155.4,199.9,100.2,200z M122.2,55.7l-3.1,0.4c-1.9,0.4-3.8,1-5.6,1.7c-7.1,3.1-12.4,9.4-14.2,16.9c-1,3.9-1,8,0,11.8
	c-3.8,0-7.6-0.5-11.2-1.5c-11.2-2.5-21.7-7.6-30.6-14.9c-2.7-2.1-5.2-4.6-7.4-7.3c-0.8-0.8-1.6-1.7-2.3-2.7c-1.2,2-2.1,4.2-2.7,6.5
	c-1.9,8.1,0.2,16.6,5.6,22.9c1.3,1.6,3.3,2.6,4.6,4c-1.1,0.2-2.3,0.1-3.4-0.3c-1.8-0.3-3.6-0.8-5.3-1.5l-2.7-1
	c-0.3,8.8,4.2,17.1,11.8,21.6c2.4,1.8,5.2,2.9,8.2,3.3c-1.6,1.4-8.7,0.8-11.2,0.5c2.5,7.6,8.4,13.5,15.9,16.1
	c2.4,0.9,4.9,1.3,7.4,1.3c-2.1,1.7-4.4,3.2-6.8,4.4c-4.7,2.6-9.8,4.4-15,5.5c-2.3,0.5-4.7,0.4-7.3,0.8c-2.7,0.2-5.4,0.1-8-0.3
	l2.2,1.3c2.3,1.4,4.6,2.6,7.1,3.6c4.8,2,9.7,3.6,14.7,4.8c11.8,2.5,24.1,2.1,35.7-1.2c26.2-8.2,42.8-27.4,49.1-55.7
	c1-5.3,1.4-10.8,1.2-16.2l4-3.3c3.3-2.8,6.2-6.1,8.5-9.8c-4.5,2-9.3,3.3-14.2,3.9c1-0.5,1.9-1.2,2.8-2c3.8-3.1,6.6-7.2,8.1-11.8
	l-3.1,1.7c-4.1,2.2-8.5,3.6-13,4.3c-5.1-5.4-12.3-8.3-19.7-7.9v0.1H122.2L122.2,55.7z"/>
</svg>
